TITLE ""
FILE "1Q_t_0178-0187.mp3" MP3
  TRACK 01 AUDIO
    TITLE "1Q_t_0178-0187_01"
    INDEX 01 00:00:00
  TRACK 02 AUDIO
    TITLE "1Q_t_0178-0187_02"
    INDEX 01 00:00:73
  TRACK 03 AUDIO
    TITLE "1Q_t_0178-0187_03"
    INDEX 01 00:01:14
  TRACK 04 AUDIO
    TITLE "1Q_t_0178-0187_04"
    INDEX 01 00:02:31
  TRACK 05 AUDIO
    TITLE "1Q_t_0178-0187_05"
    INDEX 01 00:02:44
  TRACK 06 AUDIO
    TITLE "1Q_t_0178-0187_06"
    INDEX 01 00:09:50
  TRACK 07 AUDIO
    TITLE "1Q_t_0178-0187_07"
    INDEX 01 00:10:30
  TRACK 08 AUDIO
    TITLE "1Q_t_0178-0187_08"
    INDEX 01 00:11:47
  TRACK 09 AUDIO
    TITLE "1Q_t_0178-0187_09"
    INDEX 01 00:11:65
  TRACK 10 AUDIO
    TITLE "1Q_t_0178-0187_10"
    INDEX 01 00:14:40
  TRACK 11 AUDIO
    TITLE "1Q_t_0178-0187_11"
    INDEX 01 00:14:55
  TRACK 12 AUDIO
    TITLE "1Q_t_0178-0187_12"
    INDEX 01 00:21:67
  TRACK 13 AUDIO
    TITLE "1Q_t_0178-0187_13"
    INDEX 01 00:22:49
  TRACK 14 AUDIO
    TITLE "1Q_t_0178-0187_14"
    INDEX 01 00:24:01
  TRACK 15 AUDIO
    TITLE "1Q_t_0178-0187_15"
    INDEX 01 00:24:21
  TRACK 16 AUDIO
    TITLE "1Q_t_0178-0187_16"
    INDEX 01 00:25:26
  TRACK 17 AUDIO
    TITLE "1Q_t_0178-0187_17"
    INDEX 01 00:25:42
  TRACK 18 AUDIO
    TITLE "1Q_t_0178-0187_18"
    INDEX 01 00:33:00
  TRACK 19 AUDIO
    TITLE "1Q_t_0178-0187_19"
    INDEX 01 00:33:55
  TRACK 20 AUDIO
    TITLE "1Q_t_0178-0187_20"
    INDEX 01 00:35:16
  TRACK 21 AUDIO
    TITLE "1Q_t_0178-0187_21"
    INDEX 01 00:35:38
  TRACK 22 AUDIO
    TITLE "1Q_t_0178-0187_22"
    INDEX 01 00:38:19
  TRACK 23 AUDIO
    TITLE "1Q_t_0178-0187_23"
    INDEX 01 00:38:32
  TRACK 24 AUDIO
    TITLE "1Q_t_0178-0187_24"
    INDEX 01 00:42:73
  TRACK 25 AUDIO
    TITLE "1Q_t_0178-0187_25"
    INDEX 01 00:43:53
  TRACK 26 AUDIO
    TITLE "1Q_t_0178-0187_26"
    INDEX 01 00:45:05
  TRACK 27 AUDIO
    TITLE "1Q_t_0178-0187_27"
    INDEX 01 00:45:21
  TRACK 28 AUDIO
    TITLE "1Q_t_0178-0187_28"
    INDEX 01 00:48:05
  TRACK 29 AUDIO
    TITLE "1Q_t_0178-0187_29"
    INDEX 01 00:48:19
  TRACK 30 AUDIO
    TITLE "1Q_t_0178-0187_30"
    INDEX 01 00:52:38
  TRACK 31 AUDIO
    TITLE "1Q_t_0178-0187_31"
    INDEX 01 00:53:16
  TRACK 32 AUDIO
    TITLE "1Q_t_0178-0187_32"
    INDEX 01 00:54:49
  TRACK 33 AUDIO
    TITLE "1Q_t_0178-0187_33"
    INDEX 01 00:54:65
  TRACK 34 AUDIO
    TITLE "1Q_t_0178-0187_34"
    INDEX 01 00:56:17
  TRACK 35 AUDIO
    TITLE "1Q_t_0178-0187_35"
    INDEX 01 00:56:32
  TRACK 36 AUDIO
    TITLE "1Q_t_0178-0187_36"
    INDEX 01 01:04:30
  TRACK 37 AUDIO
    TITLE "1Q_t_0178-0187_37"
    INDEX 01 01:05:04
  TRACK 38 AUDIO
    TITLE "1Q_t_0178-0187_38"
    INDEX 01 01:06:29
  TRACK 39 AUDIO
    TITLE "1Q_t_0178-0187_39"
    INDEX 01 01:06:44
  TRACK 40 AUDIO
    TITLE "1Q_t_0178-0187_40"
    INDEX 01 01:09:33
  TRACK 41 AUDIO
    TITLE "1Q_t_0178-0187_41"
    INDEX 01 01:09:49
  TRACK 42 AUDIO
    TITLE "1Q_t_0178-0187_42"
    INDEX 01 01:16:70
  TRACK 43 AUDIO
    TITLE "1Q_t_0178-0187_43"
    INDEX 01 01:17:48
  TRACK 44 AUDIO
    TITLE "1Q_t_0178-0187_44"
    INDEX 01 01:18:61
  TRACK 45 AUDIO
    TITLE "1Q_t_0178-0187_45"
    INDEX 01 01:19:04
  TRACK 46 AUDIO
    TITLE "1Q_t_0178-0187_46"
    INDEX 01 01:23:23
  TRACK 47 AUDIO
    TITLE "1Q_t_0178-0187_47"
    INDEX 01 01:23:41
  TRACK 48 AUDIO
    TITLE "1Q_t_0178-0187_48"
    INDEX 01 01:29:24
  TRACK 49 AUDIO
    TITLE "1Q_t_0178-0187_49"
    INDEX 01 01:30:00
  TRACK 50 AUDIO
    TITLE "1Q_t_0178-0187_50"
    INDEX 01 01:31:13
  TRACK 51 AUDIO
    TITLE "1Q_t_0178-0187_51"
    INDEX 01 01:31:29
  TRACK 52 AUDIO
    TITLE "1Q_t_0178-0187_52"
    INDEX 01 01:34:45
  TRACK 53 AUDIO
    TITLE "1Q_t_0178-0187_53"
    INDEX 01 01:34:60
  TRACK 54 AUDIO
    TITLE "1Q_t_0178-0187_54"
    INDEX 01 01:41:17
  TRACK 55 AUDIO
    TITLE "1Q_t_0178-0187_55"
    INDEX 01 01:41:68
  TRACK 56 AUDIO
    TITLE "1Q_t_0178-0187_56"
    INDEX 01 01:43:14
  TRACK 57 AUDIO
    TITLE "1Q_t_0178-0187_57"
    INDEX 01 01:43:34
  TRACK 58 AUDIO
    TITLE "1Q_t_0178-0187_58"
    INDEX 01 01:45:48
  TRACK 59 AUDIO
    TITLE "1Q_t_0178-0187_59"
    INDEX 01 01:45:62
  TRACK 60 AUDIO
    TITLE "1Q_t_0178-0187_60"
    INDEX 01 01:52:09
